<svg width="582" height="75" viewBox="0 0 582 75" fill="none" xmlns="http://www.w3.org/2000/svg">
<path d="M25.2539 50C24.7819 50 24.4808 49.8372 24.3506 49.5117C24.2367 49.1699 24.1797 48.763 24.1797 48.291V24.3896C24.1797 23.3805 24.5133 22.876 25.1807 22.876C25.5876 22.876 26.0596 23.1201 26.5967 23.6084L51.5723 46.875V24.6582C51.5723 24.1862 51.6211 23.763 51.7188 23.3887C51.8327 22.998 52.1338 22.8027 52.6221 22.8027C53.0452 22.8027 53.3219 22.9899 53.4521 23.3643C53.5824 23.7223 53.6475 24.1536 53.6475 24.6582V48.4375C53.6475 49.4792 53.3708 50 52.8174 50C52.443 50 51.9792 49.7477 51.4258 49.2432L26.2549 25.9277V48.291C26.2549 48.763 26.1816 49.1699 26.0352 49.5117C25.9049 49.8372 25.6445 50 25.2539 50ZM69.5557 50.2686C65.4867 50.2686 62.5488 49.4222 60.7422 47.7295C58.9355 46.0205 58.0322 43.6442 58.0322 40.6006C58.0322 38.0778 58.5449 36.1084 59.5703 34.6924C60.612 33.2764 62.0199 32.2754 63.7939 31.6895C65.568 31.1035 67.5456 30.8105 69.7266 30.8105C73.112 30.8105 75.6429 31.4616 77.3193 32.7637C79.012 34.0495 79.8584 35.8968 79.8584 38.3057C79.8584 38.7451 79.7933 39.266 79.6631 39.8682C79.5329 40.4541 79.4027 40.7471 79.2725 40.7471L59.9854 40.5029C60.0505 43.7093 60.8805 45.8984 62.4756 47.0703C64.0869 48.2422 66.4388 48.8281 69.5312 48.8281C71.3542 48.8281 72.876 48.6654 74.0967 48.3398C75.3337 47.998 76.3265 47.6237 77.0752 47.2168C77.8402 46.7936 78.4017 46.46 78.7598 46.2158C78.8086 46.1833 78.8737 46.167 78.9551 46.167C79.1341 46.167 79.2969 46.2565 79.4434 46.4355C79.6061 46.5983 79.6875 46.7773 79.6875 46.9727C79.6875 47.1517 79.6061 47.2982 79.4434 47.4121C79.2643 47.5911 78.8005 47.9167 78.0518 48.3887C77.3193 48.8444 76.2533 49.2757 74.8535 49.6826C73.4701 50.0732 71.7041 50.2686 69.5557 50.2686ZM60.0098 39.3066H78.418V38.1592C78.418 37.0687 78.1413 36.084 77.5879 35.2051C77.0345 34.3099 76.123 33.5938 74.8535 33.0566C73.584 32.5195 71.875 32.251 69.7266 32.251C66.7155 32.251 64.3717 32.7718 62.6953 33.8135C61.0352 34.8551 60.14 36.6862 60.0098 39.3066ZM84.4873 50.0732C83.9827 50.0732 83.7305 49.821 83.7305 49.3164C83.7305 48.9909 83.9176 48.6491 84.292 48.291L92.7637 40.5518L84.1943 32.959C83.8688 32.6823 83.7061 32.3812 83.7061 32.0557C83.7061 31.5511 83.9746 31.2988 84.5117 31.2988C84.8698 31.2988 85.2035 31.4453 85.5127 31.7383L94.082 39.3555L102.651 31.7383C102.993 31.4453 103.319 31.2988 103.628 31.2988C104.165 31.2988 104.434 31.5511 104.434 32.0557C104.434 32.3649 104.279 32.666 103.97 32.959L95.4004 40.5518L103.872 48.291C104.23 48.6328 104.409 48.9827 104.409 49.3408C104.409 49.8291 104.165 50.0732 103.677 50.0732C103.335 50.0732 102.993 49.9105 102.651 49.585L94.082 41.7725L85.5127 49.585C85.1709 49.9105 84.8291 50.0732 84.4873 50.0732ZM118.804 50.2441C115.321 50.2441 112.83 49.5605 111.333 48.1934C109.836 46.8099 109.087 44.5801 109.087 41.5039V33.0566C109.087 32.6335 109.144 32.2347 109.258 31.8604C109.372 31.486 109.64 31.2988 110.063 31.2988C110.535 31.2988 110.812 31.486 110.894 31.8604C110.991 32.2347 111.04 32.6335 111.04 33.0566V41.5039C111.04 43.3105 111.252 44.751 111.675 45.8252C112.114 46.8831 112.896 47.6481 114.019 48.1201C115.142 48.5758 116.737 48.8037 118.804 48.8037C121.082 48.8037 123.019 48.4538 124.614 47.7539C126.226 47.054 127.495 46.3542 128.423 45.6543V33.0566C128.423 32.6335 128.464 32.2347 128.545 31.8604C128.643 31.486 128.903 31.2988 129.326 31.2988C129.814 31.2988 130.107 31.486 130.205 31.8604C130.319 32.2347 130.376 32.6335 130.376 33.0566V48.291C130.376 48.7142 130.319 49.1048 130.205 49.4629C130.091 49.821 129.839 50 129.448 50C129.041 50 128.765 49.8698 128.618 49.6094C128.488 49.349 128.423 48.9095 128.423 48.291V46.5576C127.967 47.0947 127.332 47.6481 126.519 48.2178C125.705 48.7874 124.671 49.2676 123.418 49.6582C122.165 50.0488 120.627 50.2441 118.804 50.2441ZM136.763 50C136.258 50 135.941 49.821 135.811 49.4629C135.697 49.1048 135.64 48.7142 135.64 48.291V24.5117C135.64 24.0885 135.705 23.6979 135.835 23.3398C135.981 22.9818 136.307 22.8027 136.812 22.8027C137.17 22.8027 137.406 22.9899 137.52 23.3643C137.65 23.7223 137.715 24.1048 137.715 24.5117V35.2051H159.321V24.5117C159.321 24.0885 159.37 23.6979 159.468 23.3398C159.582 22.9818 159.875 22.8027 160.347 22.8027C160.835 22.8027 161.128 22.9818 161.226 23.3398C161.34 23.6979 161.396 24.0885 161.396 24.5117V48.291C161.396 48.7142 161.34 49.1048 161.226 49.4629C161.128 49.821 160.843 50 160.371 50C159.883 50 159.582 49.821 159.468 49.4629C159.37 49.1048 159.321 48.7142 159.321 48.291V36.7188H137.715V48.291C137.715 48.6979 137.642 49.0885 137.495 49.4629C137.365 49.821 137.121 50 136.763 50ZM176.108 50.2441C172.625 50.2441 170.135 49.5605 168.638 48.1934C167.14 46.8099 166.392 44.5801 166.392 41.5039V33.0566C166.392 32.6335 166.449 32.2347 166.562 31.8604C166.676 31.486 166.945 31.2988 167.368 31.2988C167.84 31.2988 168.117 31.486 168.198 31.8604C168.296 32.2347 168.345 32.6335 168.345 33.0566V41.5039C168.345 43.3105 168.556 44.751 168.979 45.8252C169.419 46.8831 170.2 47.6481 171.323 48.1201C172.446 48.5758 174.041 48.8037 176.108 48.8037C178.387 48.8037 180.324 48.4538 181.919 47.7539C183.53 47.054 184.8 46.3542 185.728 45.6543V33.0566C185.728 32.6335 185.768 32.2347 185.85 31.8604C185.947 31.486 186.208 31.2988 186.631 31.2988C187.119 31.2988 187.412 31.486 187.51 31.8604C187.624 32.2347 187.681 32.6335 187.681 33.0566V48.291C187.681 48.7142 187.624 49.1048 187.51 49.4629C187.396 49.821 187.144 50 186.753 50C186.346 50 186.069 49.8698 185.923 49.6094C185.793 49.349 185.728 48.9095 185.728 48.291V46.5576C185.272 47.0947 184.637 47.6481 183.823 48.2178C183.009 48.7874 181.976 49.2676 180.723 49.6582C179.469 50.0488 177.931 50.2441 176.108 50.2441ZM205.884 50.2441C203.247 50.2441 201.034 49.9593 199.243 49.3896C197.453 48.82 196.004 48.234 194.897 47.6318V48.2178C194.897 48.6898 194.849 49.1048 194.751 49.4629C194.653 49.821 194.368 50 193.896 50C193.424 50 193.148 49.821 193.066 49.4629C192.985 49.1048 192.944 48.6898 192.944 48.2178V23.999C192.944 23.4782 193.05 23.1527 193.262 23.0225C193.49 22.876 193.726 22.8027 193.97 22.8027C194.214 22.8027 194.425 22.876 194.604 23.0225C194.8 23.1527 194.897 23.4782 194.897 23.999V35.6689C195.174 34.6273 195.736 33.7891 196.582 33.1543C197.428 32.5195 198.413 32.0312 199.536 31.6895C200.659 31.3477 201.79 31.1198 202.93 31.0059C204.069 30.8757 205.054 30.8105 205.884 30.8105C207.837 30.8105 209.627 31.0954 211.255 31.665C212.899 32.2347 214.217 33.2113 215.21 34.5947C216.203 35.9619 216.699 37.8743 216.699 40.332C216.699 43.9779 215.755 46.5413 213.867 48.0225C211.995 49.5036 209.334 50.2441 205.884 50.2441ZM205.884 48.8037C209.009 48.8037 211.263 48.1364 212.646 46.8018C214.046 45.4508 214.746 43.2943 214.746 40.332C214.746 38.2812 214.347 36.6699 213.55 35.498C212.752 34.3099 211.686 33.4717 210.352 32.9834C209.017 32.4951 207.528 32.251 205.884 32.251C204.907 32.2673 203.841 32.3486 202.686 32.4951C201.546 32.6253 200.439 32.8695 199.365 33.2275C198.291 33.5856 197.347 34.082 196.533 34.7168C195.736 35.3516 195.19 36.1816 194.897 37.207V46.582C196.297 47.1029 197.909 47.6074 199.731 48.0957C201.571 48.5677 203.621 48.8037 205.884 48.8037Z" fill="black"/>
<path d="M265.788 36.1787L271.652 26.0214L265.788 15.8641L254.06 15.8641L248.195 26.0214L254.06 36.1787L265.788 36.1787Z" stroke="#00DAC6"/>
<path d="M254.237 16.1723L260.005 26.1617M260.005 26.1617L271.386 25.9708M260.005 26.1617L254.149 35.9224" stroke="#00DAC6"/>
<path d="M234.157 26.4693L228.293 36.6266L234.157 46.7839L245.886 46.7839L251.75 36.6266L245.886 26.4693L234.157 26.4693Z" stroke="black"/>
<path d="M245.708 46.4766L239.94 36.4872M239.94 36.4872L228.559 36.6781M239.94 36.4872L245.796 26.7266" stroke="black"/>
<path d="M254.77 58.2138L248.906 48.0565L254.77 37.8992L266.499 37.8992L272.363 48.0565L266.499 58.2138L254.77 58.2138Z" stroke="black"/>
<path d="M265.934 37.5161L260.166 47.5055M260.166 47.5055L248.785 47.3145M260.166 47.5055L266.022 57.2661" stroke="black"/>
<path d="M241.265 58.2153L235.401 48.058L241.265 37.9007L252.994 37.9007L258.858 48.058L252.994 58.2153L241.265 58.2153Z" stroke="black"/>
<path d="M252.816 38.208L247.049 48.1974M247.049 48.1974L235.668 48.0064M247.049 48.1974L252.904 57.958" stroke="black"/>
<path d="M285.903 50C285.431 50 285.154 49.9674 285.073 49.9023C284.991 49.821 284.951 49.5687 284.951 49.1455V23.7061C284.951 23.234 284.991 22.9655 285.073 22.9004C285.154 22.8353 285.447 22.8027 285.952 22.8027H302.7C306.248 22.8027 309.21 23.2259 311.586 24.0723C313.979 24.9186 315.778 26.3346 316.982 28.3203C318.203 30.2897 318.813 32.9671 318.813 36.3525C318.813 39.8193 318.203 42.5456 316.982 44.5312C315.778 46.5169 313.979 47.9248 311.586 48.7549C309.21 49.585 306.248 50 302.7 50H285.903ZM287.026 48.3887H302.7C306.232 48.3887 309.015 47.9818 311.049 47.168C313.1 46.3379 314.557 45.0358 315.419 43.2617C316.298 41.4876 316.738 39.1846 316.738 36.3525C316.738 33.5531 316.298 31.2744 315.419 29.5166C314.557 27.7588 313.1 26.473 311.049 25.6592C309.015 24.8291 306.232 24.4141 302.7 24.4141H287.026V48.3887ZM333.793 50.2686C329.724 50.2686 326.787 49.4222 324.98 47.7295C323.173 46.0205 322.27 43.6442 322.27 40.6006C322.27 38.0778 322.783 36.1084 323.808 34.6924C324.85 33.2764 326.258 32.2754 328.032 31.6895C329.806 31.1035 331.783 30.8105 333.964 30.8105C337.35 30.8105 339.881 31.4616 341.557 32.7637C343.25 34.0495 344.096 35.8968 344.096 38.3057C344.096 38.7451 344.031 39.266 343.901 39.8682C343.771 40.4541 343.64 40.7471 343.51 40.7471L324.223 40.5029C324.288 43.7093 325.118 45.8984 326.713 47.0703C328.325 48.2422 330.677 48.8281 333.769 48.8281C335.592 48.8281 337.114 48.6654 338.334 48.3398C339.571 47.998 340.564 47.6237 341.313 47.2168C342.078 46.7936 342.639 46.46 342.998 46.2158C343.046 46.1833 343.111 46.167 343.193 46.167C343.372 46.167 343.535 46.2565 343.681 46.4355C343.844 46.5983 343.925 46.7773 343.925 46.9727C343.925 47.1517 343.844 47.2982 343.681 47.4121C343.502 47.5911 343.038 47.9167 342.29 48.3887C341.557 48.8444 340.491 49.2757 339.091 49.6826C337.708 50.0732 335.942 50.2686 333.793 50.2686ZM324.248 39.3066H342.656V38.1592C342.656 37.0687 342.379 36.084 341.826 35.2051C341.272 34.3099 340.361 33.5938 339.091 33.0566C337.822 32.5195 336.113 32.251 333.964 32.251C330.953 32.251 328.61 32.7718 326.933 33.8135C325.273 34.8551 324.378 36.6862 324.248 39.3066ZM356.904 50.2441C356.562 50.2441 356.293 50.1302 356.098 49.9023C355.903 49.6745 355.756 49.471 355.659 49.292L346.137 33.0322C345.974 32.7718 345.893 32.487 345.893 32.1777C345.893 31.5918 346.17 31.2988 346.723 31.2988C347.146 31.2988 347.504 31.5511 347.797 32.0557L356.904 48.2178L366.01 32.0557C366.303 31.5511 366.661 31.2988 367.084 31.2988C367.312 31.2988 367.508 31.3802 367.67 31.543C367.833 31.6895 367.915 31.901 367.915 32.1777C367.915 32.4382 367.833 32.723 367.67 33.0322L358.149 49.292C358.035 49.471 357.88 49.6745 357.685 49.9023C357.49 50.1302 357.229 50.2441 356.904 50.2441ZM381.088 50.2686C377.019 50.2686 374.082 49.4222 372.275 47.7295C370.468 46.0205 369.565 43.6442 369.565 40.6006C369.565 38.0778 370.078 36.1084 371.103 34.6924C372.145 33.2764 373.553 32.2754 375.327 31.6895C377.101 31.1035 379.078 30.8105 381.259 30.8105C384.645 30.8105 387.176 31.4616 388.852 32.7637C390.545 34.0495 391.391 35.8968 391.391 38.3057C391.391 38.7451 391.326 39.266 391.196 39.8682C391.066 40.4541 390.935 40.7471 390.805 40.7471L371.518 40.5029C371.583 43.7093 372.413 45.8984 374.008 47.0703C375.62 48.2422 377.972 48.8281 381.064 48.8281C382.887 48.8281 384.409 48.6654 385.629 48.3398C386.866 47.998 387.859 47.6237 388.608 47.2168C389.373 46.7936 389.934 46.46 390.292 46.2158C390.341 46.1833 390.406 46.167 390.488 46.167C390.667 46.167 390.83 46.2565 390.976 46.4355C391.139 46.5983 391.22 46.7773 391.22 46.9727C391.22 47.1517 391.139 47.2982 390.976 47.4121C390.797 47.5911 390.333 47.9167 389.584 48.3887C388.852 48.8444 387.786 49.2757 386.386 49.6826C385.003 50.0732 383.237 50.2686 381.088 50.2686ZM371.542 39.3066H389.951V38.1592C389.951 37.0687 389.674 36.084 389.121 35.2051C388.567 34.3099 387.656 33.5938 386.386 33.0566C385.117 32.5195 383.408 32.251 381.259 32.251C378.248 32.251 375.904 32.7718 374.228 33.8135C372.568 34.8551 371.673 36.6862 371.542 39.3066ZM396.606 50C396.134 50 395.849 49.8372 395.751 49.5117C395.654 49.1699 395.605 48.7793 395.605 48.3398V24.5605C395.605 24.0885 395.654 23.6816 395.751 23.3398C395.865 22.9818 396.167 22.8027 396.655 22.8027C397.062 22.8027 397.314 22.9818 397.412 23.3398C397.509 23.6979 397.558 24.0885 397.558 24.5117V48.291C397.558 48.763 397.501 49.1699 397.387 49.5117C397.273 49.8372 397.013 50 396.606 50ZM414.101 50.2441C411.106 50.2441 408.722 49.8535 406.948 49.0723C405.174 48.291 403.896 47.1842 403.115 45.752C402.35 44.3034 401.967 42.5863 401.967 40.6006C401.967 37.1501 402.944 34.6598 404.897 33.1299C406.866 31.5837 409.934 30.8105 414.101 30.8105C418.268 30.8105 421.328 31.5837 423.281 33.1299C425.25 34.6598 426.235 37.1501 426.235 40.6006C426.235 42.5863 425.844 44.3034 425.063 45.752C424.298 47.1842 423.028 48.291 421.254 49.0723C419.48 49.8535 417.096 50.2441 414.101 50.2441ZM414.101 48.8037C416.315 48.8037 418.097 48.5677 419.448 48.0957C420.799 47.6237 421.816 46.9889 422.5 46.1914C423.199 45.3939 423.671 44.515 423.916 43.5547C424.16 42.5781 424.282 41.5934 424.282 40.6006C424.282 37.5732 423.476 35.4248 421.865 34.1553C420.253 32.8857 417.666 32.251 414.101 32.251C410.537 32.251 407.949 32.8857 406.337 34.1553C404.726 35.4248 403.92 37.5732 403.92 40.6006C403.92 41.5934 404.042 42.5781 404.287 43.5547C404.531 44.515 404.995 45.3939 405.678 46.1914C406.378 46.9889 407.403 47.6237 408.754 48.0957C410.105 48.5677 411.888 48.8037 414.101 48.8037ZM431.572 58.2275C431.1 58.2275 430.823 58.0322 430.742 57.6416C430.66 57.2673 430.62 56.8441 430.62 56.3721V32.4951C430.62 31.9743 430.717 31.6488 430.913 31.5186C431.108 31.3721 431.319 31.2988 431.547 31.2988C431.824 31.2988 432.044 31.3721 432.207 31.5186C432.369 31.6488 432.451 31.9743 432.451 32.4951V35.7178C432.744 34.6761 433.321 33.8379 434.184 33.2031C435.047 32.5521 436.04 32.0557 437.163 31.7139C438.286 31.3721 439.417 31.1361 440.556 31.0059C441.712 30.8757 442.713 30.8105 443.559 30.8105C445.512 30.8105 447.303 31.0954 448.93 31.665C450.574 32.2347 451.892 33.2113 452.885 34.5947C453.878 35.9619 454.375 37.8743 454.375 40.332C454.375 43.9779 453.431 46.5413 451.542 48.0225C449.671 49.5036 447.01 50.2441 443.559 50.2441C440.922 50.2441 438.701 49.9593 436.894 49.3896C435.087 48.82 433.631 48.234 432.524 47.6318V56.5186C432.524 56.9417 432.483 57.3324 432.402 57.6904C432.32 58.0485 432.044 58.2275 431.572 58.2275ZM443.559 48.8037C446.684 48.8037 448.938 48.1364 450.322 46.8018C451.722 45.4508 452.421 43.2943 452.421 40.332C452.421 38.2812 452.023 36.6699 451.225 35.498C450.428 34.3099 449.361 33.4717 448.027 32.9834C446.692 32.4951 445.203 32.251 443.559 32.251C442.583 32.2673 441.516 32.3486 440.361 32.4951C439.222 32.6253 438.115 32.8695 437.041 33.2275C435.966 33.5856 435.022 34.082 434.208 34.7168C433.411 35.3516 432.866 36.1816 432.573 37.207V46.582C433.972 47.1029 435.584 47.6074 437.407 48.0957C439.246 48.5677 441.297 48.8037 443.559 48.8037ZM459.882 50C459.654 50 459.41 49.943 459.15 49.8291C458.906 49.7152 458.784 49.349 458.784 48.7305V32.4951C458.784 31.9743 458.898 31.6488 459.125 31.5186C459.353 31.3721 459.573 31.2988 459.785 31.2988C460.061 31.2988 460.281 31.3721 460.444 31.5186C460.623 31.6488 460.712 31.9743 460.712 32.4951V35.498C461.233 34.0169 462.307 32.8695 463.935 32.0557C465.579 31.2256 467.459 30.8105 469.575 30.8105C471.235 30.8105 472.472 31.0872 473.286 31.6406C474.116 32.194 474.685 32.8288 474.995 33.5449C475.304 34.2611 475.507 34.8714 475.605 35.376C475.996 34.6924 476.565 34.0007 477.314 33.3008C478.079 32.6009 479.056 32.015 480.244 31.543C481.432 31.0547 482.856 30.8105 484.516 30.8105C486.746 30.8105 488.398 31.3883 489.472 32.5439C490.563 33.6995 491.108 35.5387 491.108 38.0615V48.7305C491.108 49.3001 490.994 49.6582 490.766 49.8047C490.555 49.9349 490.351 50 490.156 50C489.912 50 489.684 49.943 489.472 49.8291C489.261 49.7152 489.155 49.349 489.155 48.7305V38.0615C489.155 35.7992 488.772 34.2692 488.007 33.4717C487.259 32.6579 486.111 32.251 484.565 32.251C482.482 32.251 480.748 32.6742 479.365 33.5205C477.998 34.3669 476.858 35.5306 475.947 37.0117V48.7305C475.947 49.3001 475.841 49.6582 475.629 49.8047C475.418 49.9349 475.214 50 475.019 50C474.791 50 474.563 49.943 474.335 49.8291C474.108 49.7152 473.994 49.349 473.994 48.7305V37.0117C473.994 35.5306 473.644 34.3669 472.944 33.5205C472.26 32.6742 471.153 32.251 469.624 32.251C467.329 32.251 465.367 32.7311 463.74 33.6914C462.128 34.6517 461.127 35.791 460.737 37.1094V48.7305C460.737 49.3001 460.639 49.6582 460.444 49.8047C460.265 49.9349 460.078 50 459.882 50ZM506.674 50.2686C502.605 50.2686 499.667 49.4222 497.861 47.7295C496.054 46.0205 495.151 43.6442 495.151 40.6006C495.151 38.0778 495.664 36.1084 496.689 34.6924C497.731 33.2764 499.139 32.2754 500.913 31.6895C502.687 31.1035 504.664 30.8105 506.845 30.8105C510.231 30.8105 512.762 31.4616 514.438 32.7637C516.131 34.0495 516.977 35.8968 516.977 38.3057C516.977 38.7451 516.912 39.266 516.782 39.8682C516.652 40.4541 516.521 40.7471 516.391 40.7471L497.104 40.5029C497.169 43.7093 497.999 45.8984 499.594 47.0703C501.206 48.2422 503.557 48.8281 506.65 48.8281C508.473 48.8281 509.995 48.6654 511.215 48.3398C512.452 47.998 513.445 47.6237 514.194 47.2168C514.959 46.7936 515.52 46.46 515.878 46.2158C515.927 46.1833 515.992 46.167 516.074 46.167C516.253 46.167 516.416 46.2565 516.562 46.4355C516.725 46.5983 516.806 46.7773 516.806 46.9727C516.806 47.1517 516.725 47.2982 516.562 47.4121C516.383 47.5911 515.919 47.9167 515.17 48.3887C514.438 48.8444 513.372 49.2757 511.972 49.6826C510.589 50.0732 508.823 50.2686 506.674 50.2686ZM497.128 39.3066H515.537V38.1592C515.537 37.0687 515.26 36.084 514.707 35.2051C514.153 34.3099 513.242 33.5938 511.972 33.0566C510.703 32.5195 508.994 32.251 506.845 32.251C503.834 32.251 501.49 32.7718 499.814 33.8135C498.154 34.8551 497.259 36.6862 497.128 39.3066ZM522.216 50C521.761 50 521.468 49.8128 521.337 49.4385C521.223 49.0641 521.167 48.6654 521.167 48.2422V32.4219C521.167 32.1452 521.223 31.8929 521.337 31.665C521.451 31.4209 521.736 31.2988 522.192 31.2988C522.599 31.2988 522.851 31.4128 522.949 31.6406C523.063 31.8522 523.12 32.1126 523.12 32.4219V35.1074C524.031 33.8379 525.081 32.902 526.269 32.2998C527.457 31.6813 528.678 31.2826 529.931 31.1035C531.184 30.9082 532.364 30.8105 533.471 30.8105C535.799 30.8105 537.638 31.0954 538.989 31.665C540.356 32.2184 541.333 33.1462 541.918 34.4482C542.504 35.7503 542.797 37.5326 542.797 39.7949V48.2422C542.797 48.6654 542.724 49.0641 542.578 49.4385C542.447 49.8128 542.187 50 541.796 50C541.324 50 541.048 49.8128 540.966 49.4385C540.885 49.0641 540.844 48.6654 540.844 48.2422V39.7949C540.844 38.1022 540.657 36.7025 540.283 35.5957C539.908 34.4727 539.184 33.6344 538.11 33.0811C537.052 32.5277 535.481 32.251 533.398 32.251C532.128 32.251 530.769 32.3975 529.321 32.6904C527.889 32.9834 526.595 33.488 525.439 34.2041C524.283 34.9202 523.51 35.9212 523.12 37.207V48.2422C523.12 48.6654 523.071 49.0641 522.973 49.4385C522.875 49.8128 522.623 50 522.216 50ZM554.628 50.2441C552.871 50.2441 551.389 49.7314 550.185 48.7061C548.997 47.6644 548.403 45.8252 548.403 43.1885V32.8369H546.254C545.799 32.8369 545.571 32.6416 545.571 32.251C545.571 31.8604 545.799 31.665 546.254 31.665H548.403V25.5859C548.403 25.0651 548.509 24.7396 548.72 24.6094C548.932 24.4629 549.152 24.3896 549.379 24.3896C549.656 24.3896 549.884 24.4629 550.063 24.6094C550.258 24.7396 550.356 25.0651 550.356 25.5859V31.665H558.461C558.95 31.665 559.194 31.8604 559.194 32.251C559.194 32.6416 558.95 32.8369 558.461 32.8369H550.356V43.1885C550.356 44.7673 550.559 45.9635 550.966 46.7773C551.389 47.5749 551.951 48.112 552.651 48.3887C553.351 48.6654 554.124 48.8037 554.97 48.8037C555.751 48.8037 556.516 48.6654 557.265 48.3887C558.014 48.112 558.876 47.7132 559.853 47.1924C560.048 47.0947 560.236 47.0459 560.415 47.0459C560.87 47.0459 561.098 47.2575 561.098 47.6807C561.098 48.0062 560.919 48.2666 560.561 48.4619C559.194 49.2106 558.103 49.6989 557.29 49.9268C556.476 50.1383 555.589 50.2441 554.628 50.2441Z" fill="black"/>
</svg>
